# xmcd
#
# Track frame offsets: 
#        182
#        15442
#        31862
#        46572
#        60152
#        72237
#        91042
#        103782
#        118905
#        128752
#        142817
#        159605
#        173752
#        187042
#        204832
#
# Disc length: 2910 seconds
#
# Revision: 2
# Processed by: cddbd v1.5.2PL0 Copyright (c) Steve Scherf et al.
# Submitted via: ExactAudioCopy v1.3
#
DISCID=b50b5c0f
DTITLE=Anne Murray - Fifteen Of The Best
DYEAR=1992
DGENRE=
TTITLE0=Shadows In The Moonlight
TTITLE1=You Needed Me
TTITLE2=Could I Have This Dance
TTITLE3=Feed The Fire
TTITLE4=Blessed Are The Believers
TTITLE5=I Can See Arkansas
TTITLE6=I Just Fall In Love Again
TTITLE7=New Way Out
TTITLE8=Snowbird
TTITLE9=Danny's Song
TTITLE10=Even the Nights Are Better
TTITLE11=A Little Good News
TTITLE12=Just Another Woman In Love
TTITLE13=Broken Hearted Me
TTITLE14=Oh Yes I Do
EXTD=
EXTT0=
EXTT1=
EXTT2=
EXTT3=
EXTT4=
EXTT5=
EXTT6=
EXTT7=
EXTT8=
EXTT9=
EXTT10=
EXTT11=
EXTT12=
EXTT13=
EXTT14=
PLAYORDER=
